# xmcd CD database file
#
# Track frame offsets:
#	182
#	13637
#	39052
#	78417
#	92447
#	106560
#	119682
#	134360
#	148295
#	161387
#	175492
#	199210
#	212320
#	230275
#	251120
#	265677
#
# Disc length: 3840 seconds
#
# Revision: 0
# Processed by: cddbd v1.5.1PL0 Copyright (c) Steve Scherf et al.
# Submitted via: cdripper 1,0,15,908
#
DISCID=ce0efe10
DTITLE=Woody Herman - JazzTime 46
DYEAR=1900
DGENRE=Jazz
TTITLE0=Red top
TTITLE1=Woodchopper's ball
TTITLE2=Summer sequence part I II III
TTITLE3=Summer sequence part IV
TTITLE4=Non-alcoholic
TTITLE5=Keen and peacy
TTITLE6=Early autumn
TTITLE7=Keeper of the flame
TTITLE8=Lemon drop
TTITLE9=That's right
TTITLE10=Men from Mars
TTITLE11=Four others
TTITLE12=Midnight sun
TTITLE13=Stairway to the blues
TTITLE14=Walking in the woodshed
TTITLE15=The preacher
EXTD=
EXTT0=
EXTT1=
EXTT2=
EXTT3=
EXTT4=
EXTT5=
EXTT6=
EXTT7=
EXTT8=
EXTT9=
EXTT10=
EXTT11=
EXTT12=
EXTT13=
EXTT14=
EXTT15=
PLAYORDER=
